v -0.361092 -1.055797 -0.772610
v -0.094642 -1.176590 0.237328
v -0.824395 -0.469486 -0.032914
v -0.531913 -0.032464 -0.943431
v 0.378604 -0.469486 -1.235914
v 0.648846 -1.176590 -0.506160
v 0.157457 0.093448 0.834150
v -0.086999 0.733080 0.174028
v 0.585546 0.733080 -0.498518
v 1.245668 0.093448 -0.254062
v 0.981094 -0.301875 0.569575
v 0.963976 0.818133 0.552458
v -0.721197 -0.835320 -0.425615
v -0.292261 -1.250942 -0.266772
v -0.564583 -0.906319 0.168013
v 0.301364 -1.321940 -0.110154
v 0.144747 -1.250942 -0.703780
v -0.549282 -0.578445 -0.960801
v -0.821606 -0.233818 -0.526022
v -0.014097 -0.835320 -1.132715
v -0.114503 -0.233818 -1.233124
v 0.579532 -0.906319 -0.976102
v 0.395933 -1.021189 0.421423
v 0.832942 -1.021189 -0.015586
v -0.568198 -0.348690 0.434497
v -0.139260 -0.764317 0.593344
v -0.555125 0.323809 -0.529634
v -0.727045 0.066937 0.005558
v 0.417077 0.066937 -1.138564
v -0.118116 0.323809 -0.966644
v 1.004862 -0.764317 -0.550779
v 0.846015 -0.348690 -0.979717
v 0.603513 -0.119734 0.831626
v -0.024299 0.488599 0.599129
v 0.227326 0.864562 -0.184192
v 1.010647 0.488599 -0.435818
v 1.243145 -0.119734 0.191994
v 0.742288 0.677274 0.782522
v 1.084208 0.513162 0.672689
v 0.640806 0.942807 0.508483
v 0.920002 0.942807 0.229287
v 1.194041 0.677274 0.330769

vt 0.818181 0.000000
vt 0.772726 0.078731
vt 0.863635 0.078731
vt 0.727272 0.157461
vt 0.681818 0.078731
vt 0.636363 0.157461
vt 0.090909 0.000000
vt 0.045454 0.078731
vt 0.136363 0.078731
vt 0.272727 0.000000
vt 0.227273 0.078731
vt 0.318182 0.078731
vt 0.454545 0.000000
vt 0.409090 0.078731
vt 0.500000 0.078731
vt 0.681818 0.236191
vt 0.909090 0.157461
vt 0.818181 0.157461
vt 0.863635 0.236191
vt 0.181818 0.157461
vt 0.090909 0.157461
vt 0.136363 0.236191
vt 0.363636 0.157461
vt 0.272727 0.157461
vt 0.318182 0.236191
vt 0.545454 0.157461
vt 0.454545 0.157461
vt 0.500000 0.236191
vt 0.772726 0.236191
vt 0.954545 0.236191
vt 0.227273 0.236191
vt 0.409090 0.236191
vt 0.590909 0.236191
vt 0.818181 0.314921
vt 0.727272 0.314921
vt 0.772726 0.393651
vt 1.000000 0.314921
vt 0.909091 0.314921
vt 0.954545 0.393651
vt 0.272727 0.314921
vt 0.181818 0.314921
vt 0.227273 0.393651
vt 0.454545 0.314921
vt 0.363636 0.314921
vt 0.409090 0.393651
vt 0.636363 0.314921
vt 0.545454 0.314921
vt 0.590909 0.393651
vt 0.500000 0.393651
vt 0.545454 0.472382
vt 0.318182 0.393651
vt 0.363636 0.472382
vt 0.136363 0.393651
vt 0.181818 0.472382
vt 0.090909 0.314921
vt 0.863635 0.393651
vt 0.909090 0.472382
vt 0.681818 0.393651
vt 0.727272 0.472382
vt 0.045454 0.236191
vt 0.000000 0.157461
vt 0.590909 0.078731
vt 0.636363 0.000000

vn -0.6434 -0.7396 -0.1978
vn -0.1703 -0.9630 0.2088
vn -0.7435 -0.4776 -0.4681
vn -0.4681 -0.4776 -0.7435
vn -0.1978 -0.7396 -0.6434
vn 0.0978 -0.8735 0.4768
vn -0.8200 -0.2511 0.5144
vn -0.8328 0.3955 -0.3872
vn 0.0770 0.1727 -0.9820
vn 0.6521 -0.6116 -0.4479
vn -0.0738 -0.6564 0.7508
vn -0.8833 0.1279 0.4511
vn -0.5589 0.6127 -0.5589
vn 0.4511 0.1279 -0.8833
vn 0.7508 -0.6564 -0.0738
vn 0.0323 0.0559 0.9979
vn -0.4429 0.7474 0.4952
vn 0.0771 0.9480 -0.3086
vn 0.8738 0.3805 -0.3027
vn 0.8461 -0.1709 0.5048
vn 0.7435 0.4776 0.4681
vn 0.9514 0.0050 0.3080
vn 0.9979 0.0559 0.0323
vn 0.6434 0.7396 0.1978
vn 0.7175 0.6169 -0.3235
vn 0.4952 0.7474 -0.4429
vn 0.3061 0.9014 0.3061
vn -0.0704 0.9950 -0.0704
vn -0.3086 0.9480 0.0771
vn 0.1978 0.7396 0.6434
vn -0.3235 0.6169 0.7175
vn -0.3027 0.3805 0.8738
vn 0.4681 0.4776 0.7435
vn 0.3080 0.0050 0.9514
vn 0.5048 -0.1709 0.8461
vn 0.8196 -0.4536 0.3500
vn 0.8997 -0.4286 0.0833
vn 0.9663 -0.2344 -0.1066
vn 0.7956 0.2122 -0.5675
vn 0.6029 0.3478 -0.7180
vn 0.4296 0.5668 -0.7030
vn -0.1454 0.8428 -0.5182
vn -0.3968 0.8277 -0.3968
vn -0.5182 0.8428 -0.1454
vn -0.7030 0.5668 0.4296
vn -0.7180 0.3478 0.6029
vn -0.5675 0.2122 0.7956
vn -0.1066 -0.2344 0.9663
vn 0.0833 -0.4286 0.8997
vn 0.3500 -0.4536 0.8196
vn 0.8964 -0.1025 -0.4313
vn 0.7185 -0.3473 -0.6026
vn 0.5144 -0.2511 -0.8200
vn 0.0910 0.6779 -0.7295
vn -0.0829 0.4293 -0.8994
vn -0.3872 0.3955 -0.8328
vn -0.7295 0.6779 0.0910
vn -0.8994 0.4293 -0.0829
vn -0.9820 0.1727 0.0770
vn -0.4313 -0.1025 0.8964
vn -0.6026 -0.3473 0.7185
vn -0.4479 -0.6116 0.6521
vn 0.5736 -0.5848 0.5736
vn 0.3973 -0.8272 0.3973
vn 0.4768 -0.8735 0.0978
vn 0.3171 -0.8012 -0.5075
vn 0.1047 -0.6946 -0.7118
vn 0.1794 -0.4406 -0.8796
vn -0.0910 -0.1787 -0.9797
vn -0.3906 -0.2146 -0.8952
vn -0.5552 0.0441 -0.8306
vn -0.8306 0.0441 -0.5552
vn -0.8952 -0.2146 -0.3906
vn -0.9797 -0.1787 -0.0910
vn 0.2088 -0.9630 -0.1703
vn -0.0938 -0.9912 -0.0938
vn -0.3061 -0.9014 -0.3061
vn -0.8796 -0.4406 0.1794
vn -0.7118 -0.6946 0.1047
vn -0.5075 -0.8012 0.3171

f 1/1/1 14/2/1 13/3/1
f 2/4/2 14/5/2 16/6/2
f 1/7/3 13/8/3 18/9/3
f 1/10/4 18/11/4 20/12/4
f 1/13/5 20/14/5 17/15/5
f 2/4/6 16/6/6 23/16/6
f 3/17/7 15/18/7 25/19/7
f 4/20/8 19/21/8 27/22/8
f 5/23/9 21/24/9 29/25/9
f 6/26/10 22/27/10 31/28/10
f 2/4/11 23/16/11 26/29/11
f 3/17/12 25/19/12 28/30/12
f 4/20/13 27/22/13 30/31/13
f 5/23/14 29/25/14 32/32/14
f 6/26/15 31/28/15 24/33/15
f 7/34/16 33/35/16 38/36/16
f 8/37/17 34/38/17 40/39/17
f 9/40/18 35/41/18 41/42/18
f 10/43/19 36/44/19 42/45/19
f 11/46/20 37/47/20 39/48/20
f 39/48/21 42/49/21 12/50/21
f 39/48/22 37/47/22 42/49/22
f 37/47/23 10/43/23 42/49/23
f 42/45/24 41/51/24 12/52/24
f 42/45/25 36/44/25 41/51/25
f 36/44/26 9/40/26 41/51/26
f 41/42/27 40/53/27 12/54/27
f 41/42/28 35/41/28 40/53/28
f 35/41/29 8/55/29 40/53/29
f 40/39/30 38/56/30 12/57/30
f 40/39/31 34/38/31 38/56/31
f 34/38/32 7/34/32 38/56/32
f 38/36/33 39/58/33 12/59/33
f 38/36/34 33/35/34 39/58/34
f 33/35/35 11/46/35 39/58/35
f 24/33/36 37/47/36 11/46/36
f 24/33/37 31/28/37 37/47/37
f 31/28/38 10/43/38 37/47/38
f 32/32/39 36/44/39 10/43/39
f 32/32/40 29/25/40 36/44/40
f 29/25/41 9/40/41 36/44/41
f 30/31/42 35/41/42 9/40/42
f 30/31/43 27/22/43 35/41/43
f 27/22/44 8/55/44 35/41/44
f 28/30/45 34/38/45 8/37/45
f 28/30/46 25/19/46 34/38/46
f 25/19/47 7/34/47 34/38/47
f 26/29/48 33/35/48 7/34/48
f 26/29/49 23/16/49 33/35/49
f 23/16/50 11/46/50 33/35/50
f 31/28/51 32/32/51 10/43/51
f 31/28/52 22/27/52 32/32/52
f 22/27/53 5/23/53 32/32/53
f 29/25/54 30/31/54 9/40/54
f 29/25/55 21/24/55 30/31/55
f 21/24/56 4/20/56 30/31/56
f 27/22/57 28/60/57 8/55/57
f 27/22/58 19/21/58 28/60/58
f 19/21/59 3/61/59 28/60/59
f 25/19/60 26/29/60 7/34/60
f 25/19/61 15/18/61 26/29/61
f 15/18/62 2/4/62 26/29/62
f 23/16/63 24/33/63 11/46/63
f 23/16/64 16/6/64 24/33/64
f 16/6/65 6/26/65 24/33/65
f 17/15/66 22/27/66 6/26/66
f 17/15/67 20/14/67 22/27/67
f 20/14/68 5/23/68 22/27/68
f 20/12/69 21/24/69 5/23/69
f 20/12/70 18/11/70 21/24/70
f 18/11/71 4/20/71 21/24/71
f 18/9/72 19/21/72 4/20/72
f 18/9/73 13/8/73 19/21/73
f 13/8/74 3/61/74 19/21/74
f 16/6/75 17/62/75 6/26/75
f 16/6/76 14/5/76 17/62/76
f 14/5/77 1/63/77 17/62/77
f 13/3/78 15/18/78 3/17/78
f 13/3/79 14/2/79 15/18/79
f 14/2/80 2/4/80 15/18/80